<mxfile host="app.diagrams.net" modified="2024-01-31T04:59:05.192Z" agent="Mozilla/5.0 (Macintosh; Intel Mac OS X 10_15_7) AppleWebKit/537.36 (KHTML, like Gecko) Chrome/121.0.0.0 Safari/537.36" etag="Z0wQ-Id9BBO6clag8URf" version="22.1.21" type="github">
  <diagram name="Page-1" id="U_wmTZB8KWketago6eiO">
    <mxGraphModel dx="1434" dy="696" grid="1" gridSize="10" guides="1" tooltips="1" connect="1" arrows="1" fold="1" page="1" pageScale="1" pageWidth="827" pageHeight="1169" math="0" shadow="0">
      <root>
        <mxCell id="0" />
        <mxCell id="1" parent="0" />
        <mxCell id="H1bqhwJZpAQjVjD1aAhh-1" value="" style="rounded=0;whiteSpace=wrap;html=1;" vertex="1" parent="1">
          <mxGeometry x="340" y="150" width="330" height="240" as="geometry" />
        </mxCell>
        <mxCell id="H1bqhwJZpAQjVjD1aAhh-2" value="azure VNet" style="text;html=1;align=center;verticalAlign=middle;resizable=0;points=[];autosize=1;strokeColor=none;fillColor=none;" vertex="1" parent="1">
          <mxGeometry x="340" y="120" width="80" height="30" as="geometry" />
        </mxCell>
        <mxCell id="H1bqhwJZpAQjVjD1aAhh-3" value="AKS cluster" style="rounded=0;whiteSpace=wrap;html=1;" vertex="1" parent="1">
          <mxGeometry x="375" y="180" width="270" height="150" as="geometry" />
        </mxCell>
        <mxCell id="H1bqhwJZpAQjVjD1aAhh-4" value="gc-drive-api (pod)" style="rounded=0;whiteSpace=wrap;html=1;" vertex="1" parent="1">
          <mxGeometry x="455" y="265" width="100" height="50" as="geometry" />
        </mxCell>
        <mxCell id="H1bqhwJZpAQjVjD1aAhh-5" value="cosmos db" style="shape=cylinder3;whiteSpace=wrap;html=1;boundedLbl=1;backgroundOutline=1;size=15;" vertex="1" parent="1">
          <mxGeometry x="730" y="160" width="60" height="80" as="geometry" />
        </mxCell>
        <mxCell id="H1bqhwJZpAQjVjD1aAhh-6" value="blob storage" style="shape=cylinder3;whiteSpace=wrap;html=1;boundedLbl=1;backgroundOutline=1;size=15;" vertex="1" parent="1">
          <mxGeometry x="730" y="270" width="60" height="80" as="geometry" />
        </mxCell>
        <mxCell id="H1bqhwJZpAQjVjD1aAhh-7" value="" style="endArrow=classic;html=1;rounded=0;exitX=1;exitY=0.25;exitDx=0;exitDy=0;" edge="1" parent="1" source="H1bqhwJZpAQjVjD1aAhh-4">
          <mxGeometry width="50" height="50" relative="1" as="geometry">
            <mxPoint x="560" y="295" as="sourcePoint" />
            <mxPoint x="720" y="210" as="targetPoint" />
          </mxGeometry>
        </mxCell>
        <mxCell id="H1bqhwJZpAQjVjD1aAhh-8" value="" style="endArrow=classic;html=1;rounded=0;exitX=1;exitY=0.75;exitDx=0;exitDy=0;" edge="1" parent="1" source="H1bqhwJZpAQjVjD1aAhh-4">
          <mxGeometry width="50" height="50" relative="1" as="geometry">
            <mxPoint x="570" y="305" as="sourcePoint" />
            <mxPoint x="720" y="320" as="targetPoint" />
          </mxGeometry>
        </mxCell>
        <mxCell id="H1bqhwJZpAQjVjD1aAhh-9" value="azure external LB" style="rounded=0;whiteSpace=wrap;html=1;" vertex="1" parent="1">
          <mxGeometry x="175" y="265" width="120" height="60" as="geometry" />
        </mxCell>
        <mxCell id="H1bqhwJZpAQjVjD1aAhh-10" value="" style="endArrow=classic;startArrow=classic;html=1;rounded=0;" edge="1" parent="1" target="H1bqhwJZpAQjVjD1aAhh-4">
          <mxGeometry width="50" height="50" relative="1" as="geometry">
            <mxPoint x="300" y="290" as="sourcePoint" />
            <mxPoint x="400" y="260" as="targetPoint" />
          </mxGeometry>
        </mxCell>
        <mxCell id="H1bqhwJZpAQjVjD1aAhh-13" value="private ipv4" style="edgeLabel;html=1;align=center;verticalAlign=middle;resizable=0;points=[];" vertex="1" connectable="0" parent="H1bqhwJZpAQjVjD1aAhh-10">
          <mxGeometry x="-0.4131" y="-1" relative="1" as="geometry">
            <mxPoint x="33" y="-14" as="offset" />
          </mxGeometry>
        </mxCell>
        <mxCell id="H1bqhwJZpAQjVjD1aAhh-11" value="user" style="shape=umlActor;verticalLabelPosition=bottom;verticalAlign=top;html=1;outlineConnect=0;" vertex="1" parent="1">
          <mxGeometry x="30" y="260" width="30" height="60" as="geometry" />
        </mxCell>
        <mxCell id="H1bqhwJZpAQjVjD1aAhh-12" value="" style="endArrow=classic;startArrow=classic;html=1;rounded=0;" edge="1" parent="1" source="H1bqhwJZpAQjVjD1aAhh-11">
          <mxGeometry width="50" height="50" relative="1" as="geometry">
            <mxPoint x="110" y="340" as="sourcePoint" />
            <mxPoint x="160" y="290" as="targetPoint" />
          </mxGeometry>
        </mxCell>
        <mxCell id="H1bqhwJZpAQjVjD1aAhh-14" value="public ipv4, port: 80" style="text;html=1;align=center;verticalAlign=middle;resizable=0;points=[];autosize=1;strokeColor=none;fillColor=none;" vertex="1" parent="1">
          <mxGeometry x="45" y="255" width="130" height="30" as="geometry" />
        </mxCell>
      </root>
    </mxGraphModel>
  </diagram>
</mxfile>
